
<svg width="933px" height="897px" viewBox="420 -341 933 897" version="1.1" xmlns="http://www.w3.org/2000/svg" xmlns:xlink="http://www.w3.org/1999/xlink">
    <!-- Generator: Sketch 3.7.2 (28276) - http://www.bohemiancoding.com/sketch -->
    <desc>Created with Sketch.</desc>
    <defs>
        <linearGradient x1="67.4911187%" y1="50%" x2="161.359269%" y2="190.998293%" id="linearGradient-1">
            <stop stop-color="#B2FF59" offset="0%"></stop>
            <stop stop-color="#009688" offset="100%"></stop>
        </linearGradient>
        <linearGradient x1="155.736887%" y1="26.3568584%" x2="70.9778803%" y2="35.0411931%" id="linearGradient-2">
            <stop stop-color="#009688" offset="0%"></stop>
            <stop stop-color="#B2FF59" offset="100%"></stop>
        </linearGradient>
        <linearGradient x1="73.1576597%" y1="-63.6933416%" x2="36.5513839%" y2="84.6565842%" id="linearGradient-3">
            <stop stop-color="#009688" offset="0%"></stop>
            <stop stop-color="#B2FF59" offset="100%"></stop>
        </linearGradient>
    </defs>
    <g id="Logo-Copy" stroke="none" stroke-width="1" fill="none" fill-rule="evenodd" transform="translate(463.000000, -245.000000)">
        <path d="M203.043898,393.663869 C253.211867,383.679494 450.832961,418.850072 458.059523,531.377402 C361.090773,576.963361 215.114211,426.640432 203.043898,393.663869 Z" id="Path-1" fill="url(#linearGradient-1)" transform="translate(330.551711, 465.980409) rotate(17.000000) translate(-330.551711, -465.980409) "></path>
        <path d="M288.250975,273.295101 C338.418944,263.310726 536.040037,298.481304 543.2666,411.008634 C446.29785,456.594592 300.321287,306.271663 288.250975,273.295101 Z" id="Path-1-Copy" fill="url(#linearGradient-2)" transform="translate(415.758787, 345.611641) rotate(54.000000) translate(-415.758787, -345.611641) "></path>
        <path d="M397.892579,338.473199 C460.502301,326.012679 707.133806,369.905629 716.15257,510.339953 C595.135383,567.231316 412.956353,379.628012 397.892579,338.473199 Z" id="Path-1-Copy-2" fill="url(#linearGradient-3)" transform="translate(557.022575, 428.724380) rotate(104.000000) translate(-557.022575, -428.724380) "></path>
        <path d="M580.082921,237.629094 C532.30207,161.108551 447.332587,110.199219 350.472592,110.199219 C251.570935,110.199219 165.066341,163.277353 117.890625,242.501806 C172.492253,174.057742 256.610569,130.199219 350.972592,130.199219 C443.075775,130.199219 525.419809,171.983102 580.082926,237.6291 Z" id="Combined-Shape" fill="#B2FF59" transform="translate(348.986775, 176.350512) rotate(-31.000000) translate(-348.986775, -176.350512) "></path>
        <path d="M424.707921,345.879094 C376.92707,269.358551 291.957587,218.449219 195.097592,218.449219 C96.1959352,218.449219 9.69134115,271.527353 -37.484375,350.751806 C17.1172527,282.307742 101.235569,238.449219 195.597592,238.449219 C287.700775,238.449219 370.044809,280.233102 424.707926,345.8791 Z" id="Combined-Shape-Copy" fill="#B2FF59" transform="translate(193.611775, 284.600512) rotate(-77.000000) translate(-193.611775, -284.600512) "></path>
        <path d="M428.836827,544.738469 C381.055976,468.217926 296.086493,417.308594 199.226498,417.308594 C100.324841,417.308594 13.8202474,470.386728 -33.3554687,549.611181 C21.2461589,481.167117 105.364475,437.308594 199.726498,437.308594 C291.829681,437.308594 374.173715,479.092477 428.836832,544.738475 Z" id="Combined-Shape-Copy-2" fill="#85E465" transform="translate(197.740682, 483.459887) rotate(-129.000000) translate(-197.740682, -483.459887) "></path>
        <path d="M576.789952,678.222844 C529.009101,601.702301 444.039618,550.792969 347.179623,550.792969 C248.277966,550.792969 161.773372,603.871103 114.597656,683.095556 C169.199284,614.651492 253.3176,570.792969 347.679623,570.792969 C439.782806,570.792969 522.12684,612.576852 576.789957,678.22285 Z" id="Combined-Shape-Copy-3" fill="#5FCE6F" transform="translate(345.693807, 616.944262) rotate(-175.000000) translate(-345.693807, -616.944262) "></path>
    </g>
</svg>